<svg width="500" height="111" version="1.1" viewBox="0 0 500 111" xmlns="http://www.w3.org/2000/svg">
 <path d="m320.21 17.79h-0.43335c-22.534 0.23334-36.435 17.251-36.435 38.751 0 20.601 12.667 37.868 35.685 37.868h0.76669c22.401-0.28334 36.435-15.401 36.435-39.068-0.0167-19.817-12.117-37.551-36.018-37.551zm-0.20001 60.885h-0.21667c-9.5836 0-15.534-9.2336-15.417-22.551 0-12.884 5.8335-22.551 15.417-22.551 9.7003 0 15.417 9.667 15.417 22.434-0.0167 13.417-5.6335 22.667-15.201 22.667zm79.486-60.885h-0.43335c-22.551 0.23334-36.468 17.251-36.468 38.751 0 20.601 12.684 37.868 35.685 37.868h0.7667c22.401-0.28334 36.435-15.401 36.435-39.068 0-19.817-12.134-37.551-36.001-37.551zm-0.21667 60.885h-0.21668c-9.5836 0-15.534-9.2336-15.417-22.551 0-12.884 5.8335-22.551 15.417-22.551s15.417 9.667 15.417 22.434c-0.0167 13.417-5.6335 22.667-15.217 22.667zm86.22-25.534v-0.23334c8.717-3.3334 12.117-9.3503 12.117-15.517a16.534 16.534 0 0 0-10-15.301c-4.8668-2.4334-10.184-3.3334-18.167-3.5835h-4.5168a150 150 0 0 0-23.451 1.6667v72.586a110.59 110.59 0 0 0 19.617 1.3334c3.0001 0 5.8002 0 8.3336-0.25001 10.884-0.73336 17.784-2.9668 22.234-6.3669a20.001 20.001 0 0 0 8.3336-16.284c0.0167-8.817-5.4668-15.517-14.517-18.051zm-24.334-20.001a37.168 37.168 0 0 1 6.5002-0.43335h1.7667c5.5502 0.45002 8.3336 3.0834 8.3336 6.9836s-2.7001 6.5502-8.3336 7.4002a27.968 27.968 0 0 1-4.2835 0.28334h-3.9835zm8.3336 46.218a25.001 25.001 0 0 1-2.5168 0.13334 39.118 39.118 0 0 1-5.7502-0.23334v-17.551h4.7502a33.718 33.718 0 0 1 3.5168 0.18334c5.6835 0.70002 9.7003 3.2501 9.7003 8.5169-0.0833 5.6502-4.3335 8.3836-9.7836 9.017zm-277.11-60.302v74.136h19.917v-62.035c0-9.317-5.0502-12.1-19.917-12.1zm-28.951 29.318c-9.367-3.5501-13.334-5.0002-13.334-8.717 0-3.3334 3.3334-5.5002 9.367-5.5002a40.918 40.918 0 0 1 16.067 3.5335c2.8001-7.6503 4.4668-19.751-15.851-19.751-18.701 0-29.834 10.117-29.834 23.217 0 11.017 8.3336 17.834 20.917 22.351 8.3336 2.8668 11.667 4.8335 11.667 8.4669s-3.3334 6.0669-10.117 6.0669a44.635 44.635 0 0 1-19.267-4.6668l-3.7501 16.384c4.1835 2.2334 12.884 4.5335 21.801 4.5335 21.667 0 31.668-10.884 31.668-23.651-0.0833-10.334-6.0002-17.384-19.334-22.267zm100.95 29.484c-13.65 0-21.667-8.3336-21.667-21.817 0-15 9.9003-21.801 21.251-21.801a37.401 37.401 0 0 1 13.767 2.6501c3.5001-8.0003 2.6501-18.934-14.65-18.934-22.134 0-41.285 13.334-41.285 39.418 0 19.701 12.217 37.001 40.001 37.001 8.817 0 15.851-1.6667 18.601-3.1001l-2.7501-15.534a40.851 40.851 0 0 1-13.267 2.0667z" fill="#003641"/>
 <path d="m6.2836 0.039757a7.2336 7.2336 0 0 0-2.8668 0.8667 6.8169 6.8169 0 0 0-3.4168 5.9335 7.0669 7.0669 0 0 0 0.71669 3.0834l33.634 58.452 10.9-18.851 17.734-30.701-10.867-18.784z" fill="#72bf44"/>
 <path d="m52.118 0.039757 28.601 49.435h21.667l22.917-39.701a6.8002 6.8002 0 0 0-5.7835-9.7337z" fill="#00ae9d"/>
 <path d="m100.82 49.475h-55.569l-10.9 18.901 23.001 39.668a7.2169 7.2169 0 0 0 2.2001 2.0001 6.6669 6.6669 0 0 0 3.4168 0.9167 6.8836 6.8836 0 0 0 5.7169-3.0834l33.768-58.335z" fill="#bfd730"/>
</svg>
