<svg width="208" height="38" viewBox="0 0 208 38" fill="none" xmlns="http://www.w3.org/2000/svg">
<path d="M19.6827 36.5506H13.2906L0 1.57526H8.68021L16.8199 24.8187L25.2141 1.57526H33.6712L19.68 36.5533L19.6827 36.5506Z" fill="black"/>
<path d="M60.3632 36.5506V32.2577C59.387 33.9948 58.0147 35.2779 56.2461 36.1045C54.4749 36.9311 52.213 37.3457 49.4578 37.3457C44.2859 37.3457 39.9668 35.5797 36.5005 32.0504C33.0342 28.5211 31.3023 24.139 31.3023 18.9015C31.3023 16.4428 31.7379 14.1101 32.6064 11.9059C33.475 9.70175 34.7161 7.76261 36.3273 6.0885C38.0644 4.24382 39.9956 2.88196 42.1132 2.00292C44.2334 1.12388 46.6186 0.683044 49.2689 0.683044C51.8115 0.683044 54 1.10813 55.8341 1.95569C57.6683 2.80324 59.1456 4.08638 60.2687 5.80248V1.57521H68.2168V36.5532H60.3632V36.5506ZM39.6309 18.7782C39.6309 21.7249 40.6123 24.1889 42.5724 26.17C44.5325 28.1511 46.923 29.143 49.7438 29.143C52.3075 29.143 54.5667 28.1459 56.5164 26.1543C58.466 24.1626 59.4422 21.8299 59.4422 19.1587C59.4422 16.3195 58.4608 13.8765 56.5006 11.8298C54.5405 9.7831 52.2445 8.76236 49.6152 8.76236C46.86 8.76236 44.5063 9.73062 42.5567 11.6724C40.607 13.6115 39.6309 15.981 39.6309 18.7782Z" fill="black"/>
<path d="M168.104 1.55692V36.5375H160.571V14.8764L146.118 36.5375L146.094 36.5139V36.5375H138.561V14.6323L124.018 36.4273L123.945 36.5375H116.485V14.6323L101.869 36.5375L101.625 36.2856V36.5375H94.0916V14.8764L79.6386 36.5375L79.6176 36.5165V36.5375H72.0867V1.55692H79.6176V23.2023L94.0601 1.55692L94.0916 1.57528V1.55692H101.625V23.533L116.291 1.55692L116.485 1.675V1.55692H124.018V23.058L138.364 1.55692L138.561 1.675V1.55692H146.094V23.2023L160.537 1.55692L160.571 1.57791V1.55692H168.104Z" fill="black"/>
<path d="M171.335 18.9042C171.335 16.4455 171.786 14.1076 172.686 11.8929C173.586 9.67823 174.895 7.71285 176.611 5.99412C178.37 4.23604 180.353 2.88468 182.557 1.94003C184.764 0.998017 187.052 0.525696 189.427 0.525696C191.949 0.525696 194.276 0.945537 196.407 1.78259C198.538 2.61965 200.493 3.87655 202.274 5.55067C204.098 7.31138 205.507 9.33973 206.504 11.641C207.501 13.9422 208 16.2986 208 18.7153C208 21.3865 207.564 23.8242 206.696 26.0284C205.827 28.2326 204.523 30.2268 202.783 32.0059C201.046 33.8086 199.062 35.1704 196.837 36.0915C194.612 37.0125 192.195 37.4743 189.587 37.4743C186.958 37.4743 184.562 37.0072 182.4 36.0757C180.238 35.1442 178.267 33.743 176.486 31.8773C174.79 30.0536 173.507 28.0463 172.639 25.8526C171.77 23.6589 171.335 21.3419 171.335 18.9042ZM179.729 18.8413C179.729 22.0845 180.618 24.6561 182.4 26.5532C184.182 28.4504 186.598 29.4003 189.65 29.4003C192.66 29.4003 195.061 28.4294 196.853 26.4902C198.645 24.5511 199.54 21.9376 199.54 18.6523C199.54 15.7056 198.601 13.2836 196.724 11.3865C194.848 9.4893 192.489 8.53941 189.65 8.53941C186.724 8.53941 184.339 9.4998 182.494 11.4179C180.65 13.3361 179.729 15.8105 179.729 18.8439V18.8413Z" fill="black"/>
</svg>
